<?xml version="1.0" encoding="utf-8"?>
<!-- Generator: Adobe Illustrator 20.0.0, SVG Export Plug-In . SVG Version: 6.00 Build 0)  -->
<svg version="1.1" id="Layer_1" xmlns="http://www.w3.org/2000/svg" xmlns:xlink="http://www.w3.org/1999/xlink" x="0px" y="0px"
	 viewBox="0 0 45 43" style="enable-background:new 0 0 45 43;" xml:space="preserve">
<style type="text/css">
	.st0{fill:#F69668;}
	.st1{fill:#929497;}
</style>
<path class="st0" d="M32.4,28.1H11.9c-0.9,0-1.6-0.7-1.6-1.6v0c0-0.9,0.7-1.6,1.6-1.6h20.4c0.9,0,1.6,0.7,1.6,1.6v0
	C34,27.4,33.2,28.1,32.4,28.1z"/>
<path class="st0" d="M26.6,33.5h-9.1c-0.9,0-1.6-0.7-1.6-1.6v0c0-0.9,0.7-1.6,1.6-1.6h9.1c0.9,0,1.6,0.7,1.6,1.6v0
	C28.2,32.8,27.5,33.5,26.6,33.5z"/>
<path class="st1" d="M33.5,19.7L33.5,19.7l-6.6-8.3C25.7,9.9,23.9,9,22,9c0,0,0,0,0,0c-1.9,0-3.7,0.9-4.9,2.4l-6.6,8.3c0,0,0,0,0,0
	l0,0l0,0c-0.3,0.3-0.4,0.8-0.3,1.3c0.1,0.7,0.7,1.3,1.4,1.4c0.6,0.1,1.2-0.2,1.6-0.6l0,0l6.7-8.4c0.5-0.7,1.4-1.1,2.2-1.1h0
	c0.9,0,1.7,0.4,2.2,1.1l6.6,8.4l0,0c0.4,0.6,1.2,0.8,2,0.5c0.4-0.2,0.7-0.5,0.9-0.9C34.1,20.8,33.9,20.2,33.5,19.7z"/>
<path class="st1" d="M22.5,42.5C10.6,42.8,0.8,33,1.1,21.1C1.3,9.9,10.4,0.9,21.6,0.6C33.5,0.3,43.2,10.1,43,22
	C42.7,33.2,33.7,42.2,22.5,42.5z M22.6,3.7C12.3,3.4,3.9,11.9,4.2,22.1c0.3,9.1,8.1,16.9,17.2,17.2c10.3,0.3,18.7-8.1,18.4-18.4
	C39.5,11.9,31.7,4,22.6,3.7z"/>
</svg>
