<?xml version="1.0" encoding="utf-8"?>
<!-- Generator: Adobe Illustrator 18.1.1, SVG Export Plug-In . SVG Version: 6.00 Build 0)  -->
<svg version="1.1" id="Layer_1" xmlns="http://www.w3.org/2000/svg" xmlns:xlink="http://www.w3.org/1999/xlink" x="0px" y="0px"
	 viewBox="-43 45 512 512" enable-background="new -43 45 512 512" xml:space="preserve">
<g>
	<g>
		<path fill="#333366" d="M443.4,160.2H321.1c-22.7-35.8-62.6-59.7-108.1-59.7s-85.4,23.9-108.1,59.7H-17.4
			c-14.1,0-25.6,11.5-25.6,25.6v290.1c0,14.1,11.5,25.6,25.6,25.6h460.8c14.1,0,25.6-11.5,25.6-25.6V185.8
			C469,171.7,457.5,160.2,443.4,160.2z M213,117.5c61.2,0,110.9,49.8,110.9,110.9S274.2,339.4,213,339.4s-110.9-49.8-110.9-110.9
			S151.8,117.5,213,117.5z M-25.9,185.8c0-4.7,3.8-8.5,8.5-8.5H95.8c-3.6,8.1-6.4,16.7-8.2,25.6H-25.9V185.8z M-25.9,219.9H85.4
			c-0.2,2.8-0.4,5.6-0.4,8.5c0,15,2.7,29.3,7.5,42.7H-25.9L-25.9,219.9L-25.9,219.9z M451.9,475.9c0,4.7-3.8,8.5-8.5,8.5H-17.4
			c-4.7,0-8.5-3.8-8.5-8.5V288.2H99.9c21.5,40.5,64.1,68.3,113.1,68.3s91.6-27.7,113.1-68.3h125.8L451.9,475.9L451.9,475.9z
			 M451.9,271.1H333.5c4.7-13.4,7.5-27.7,7.5-42.7c0-2.9-0.2-5.7-0.4-8.5h111.4L451.9,271.1L451.9,271.1z M451.9,202.9H338.4
			c-1.8-8.9-4.6-17.5-8.2-25.6h113.2c4.7,0,8.5,3.8,8.5,8.5L451.9,202.9L451.9,202.9z"/>
	</g>
</g>
<g>
	<g>
		<path fill="#333366" d="M383.7,373.5c-11.3,0-22,4.5-29.9,12.2c-7.9-7.7-18.6-12.2-29.9-12.2c-23.5,0-42.7,19.1-42.7,42.7
			s19.1,42.7,42.7,42.7c11.3,0,22-4.5,29.9-12.2c7.9,7.7,18.6,12.2,29.9,12.2c23.5,0,42.7-19.1,42.7-42.7S407.2,373.5,383.7,373.5z
			 M383.7,441.8c-9.1,0-17.6-4.9-22.2-12.8c-1.5-2.6-4.9-4.3-8-4.3c0,0-0.1,0-0.1,0c-3,0-5.8,1.7-7.3,4.3
			c-4.6,7.9-13.1,12.8-22.2,12.8c-14.1,0-25.6-11.5-25.6-25.6s11.5-25.6,25.6-25.6c9.1,0,17.6,4.9,22.2,12.8
			c1.6,2.8,4.4,4.2,7.5,4.3c3.1,0.2,6.2-1.4,7.9-4.2c4.6-7.9,13.1-12.8,22.2-12.8c14.1,0,25.6,11.5,25.6,25.6
			S397.8,441.8,383.7,441.8z"/>
	</g>
</g>
<g>
	<g>
		<path fill="#333366" d="M238.6,390.6h-85.3c-4.7,0-8.5,3.8-8.5,8.5v34.1c0,4.7,3.8,8.5,8.5,8.5h85.3c4.7,0,8.5-3.8,8.5-8.5v-34.1
			C247.1,394.4,243.3,390.6,238.6,390.6z M230.1,424.7h-68.3v-17.1h68.3L230.1,424.7L230.1,424.7z"/>
	</g>
</g>
<g>
	<g>
		<path fill="#333366" d="M102.1,390.6H16.7c-4.7,0-8.5,3.8-8.5,8.5v34.1c0,4.7,3.8,8.5,8.5,8.5h85.3c4.7,0,8.5-3.8,8.5-8.5v-34.1
			C110.6,394.4,106.8,390.6,102.1,390.6z M93.5,424.7H25.3v-17.1h68.3L93.5,424.7L93.5,424.7z"/>
	</g>
</g>
<g>
	<g>
		<path fill="#F79839" d="M295.8,188.3l-25.6-25.6c-3.3-3.3-8.7-3.3-12.1,0l-70.8,70.8l-19.6-19.6c-3.3-3.3-8.7-3.3-12.1,0
			l-25.6,25.6c-3.3,3.3-3.3,8.7,0,12.1l51.2,51.2c1.7,1.7,3.8,2.5,6,2.5c2.2,0,4.4-0.8,6-2.5l102.4-102.4
			C299.2,197,299.2,191.6,295.8,188.3z M187.4,284.7l-39.1-39.1l13.5-13.5l19.6,19.6c3.3,3.3,8.7,3.3,12.1,0l70.8-70.8l13.5,13.5
			L187.4,284.7z"/>
	</g>
</g>
<circle fill="none" stroke="#F79839" stroke-width="19" stroke-miterlimit="10" cx="212.9" cy="228.4" r="119.4"/>
</svg>
