<?xml version="1.0" encoding="iso-8859-1"?>
<!-- Generator: Adobe Illustrator 19.2.0, SVG Export Plug-In . SVG Version: 6.00 Build 0)  -->
<svg version="1.1" id="Capa_1" xmlns="http://www.w3.org/2000/svg" xmlns:xlink="http://www.w3.org/1999/xlink" x="0px" y="0px"
	 viewBox="0 0 512 512" style="enable-background:new 0 0 512 512;" xml:space="preserve">
<g>
	<g>
		<linearGradient id="SVGID_1_" gradientUnits="userSpaceOnUse" x1="199.1584" y1="334.3434" x2="318.0574" y2="334.3434">
			<stop  offset="0" style="stop-color:#F1673A"/>
			<stop  offset="1" style="stop-color:#F79839"/>
		</linearGradient>
		<path style="fill:url(#SVGID_1_);" d="M273.244,321.357h-29.272c-10.644,0-19.267-8.622-19.267-19.267s8.622-19.267,19.267-19.267
			h51.519c7.025,0,12.773-5.748,12.773-12.773c0-7.025-5.748-12.773-12.773-12.773h-24.163v-17.776
			c0-7.025-5.748-12.773-12.773-12.773c-7.025,0-12.773,5.748-12.773,12.773v17.776h-1.81c-24.695,0-44.813,20.118-44.813,44.813
			s20.118,44.813,44.813,44.813h29.272c10.645,0,19.267,8.622,19.267,19.267c0,10.645-8.622,19.267-19.267,19.267h-52.477
			c-7.025,0-12.773,5.748-12.773,12.773c0,7.025,5.748,12.773,12.773,12.773h25.121v18.202c0,7.025,5.748,12.773,12.773,12.773
			c7.025,0,12.773-5.748,12.773-12.773v-18.202h2.129c0.106,0,0.213,0,0.319,0c24.482-0.319,44.175-20.331,44.175-44.813
			C318.057,341.475,297.939,321.357,273.244,321.357z"/>
		<linearGradient id="SVGID_2_" gradientUnits="userSpaceOnUse" x1="36.0848" y1="256" x2="475.9152" y2="256">
			<stop  offset="0" style="stop-color:#F1673A"/>
			<stop  offset="1" style="stop-color:#F79839"/>
		</linearGradient>
		<path style="fill:url(#SVGID_2_);" d="M450.581,292.404c-13.412-30.869-31.933-60.78-55.351-88.775
			c-28.314-34.062-56.522-56.842-70.892-67.38l54.287-100.697c2.661-5.003,1.81-11.177-2.342-15.115
			C362.232,6.706,347.33,0,330.724,0c-15.222,0-29.166,5.748-41.301,10.857c-9.58,3.938-18.628,7.77-25.973,7.77
			c-2.235,0-4.151-0.319-6.067-1.064C232.05,8.303,212.57,2.555,193.73,2.555c-23.844,0-44.175,9.58-64.08,30.017
			c-4.151,4.258-4.79,10.964-1.49,15.967l58.545,88.456c-14.477,10.751-42.152,33.317-69.934,66.634
			c-23.311,27.995-41.939,57.906-55.351,88.775C44.6,331.257,36.085,371.812,36.085,412.9c0,54.606,44.494,99.1,99.1,99.1h241.63
			c54.606,0,99.1-44.494,99.1-99.1C475.915,371.812,467.4,331.257,450.581,292.404z M155.41,43.217
			c12.348-10.644,24.163-15.328,38.32-15.328c15.115,0,32.146,5.109,54.819,13.519c4.684,1.703,9.686,2.555,14.796,2.555
			c12.454,0,24.376-4.896,35.766-9.686c10.964-4.577,21.395-8.941,31.508-8.941c4.896,0,11.815,0.852,20.544,7.025l-51.094,94.949
			H211.08L155.41,43.217z M376.815,486.453h-241.63c-40.556,0-73.553-32.998-73.553-73.553c0-68.231,25.015-132.95,74.192-192.346
			c31.082-37.575,62.696-60.886,72.276-67.699h95.588c9.686,6.706,41.194,30.124,72.276,67.699
			c49.284,59.396,74.192,124.008,74.192,192.346C450.368,453.455,417.37,486.453,376.815,486.453z"/>
	</g>
</g>
</svg>
