<?xml version="1.0" encoding="utf-8"?>
<!-- Generator: Adobe Illustrator 19.2.0, SVG Export Plug-In . SVG Version: 6.00 Build 0)  -->
<svg version="1.1" id="Layer_1" xmlns="http://www.w3.org/2000/svg" xmlns:xlink="http://www.w3.org/1999/xlink" x="0px" y="0px"
	 viewBox="0 0 674.4 113.5" style="enable-background:new 0 0 674.4 113.5;" xml:space="preserve">
<style type="text/css">
	.st0{fill:#58595B;}
	.st1{fill:#FF9933;}
	.st2{fill:#FF6633;}
</style>
<title>Horizontal-logo-color</title>
<path class="st0" d="M222.9,39.8v37.7c0,0.5-0.4,0.9-0.9,0.9h-14.3c-0.5,0-0.9-0.4-0.9-0.9V39.8h-14.7c-0.5,0-0.9-0.4-0.9-0.9V25.9
	c0-0.5,0.4-0.9,0.9-0.9h45.5c0.5,0,0.9,0.4,0.9,0.9V39c0,0.5-0.4,0.9-0.9,0.9L222.9,39.8z"/>
<path class="st0" d="M243.4,77.6V65.6c0-0.5,0.4-0.9,0.9-0.9H256V42.9c-3.3,0.7-6.5,1.3-9.9,1.9c-0.4,0.1-0.9-0.2-1-0.6l-2.7-8.9
	c-0.1-0.4,0.1-0.8,0.5-1c5.6-2.6,10.9-5.6,16-9.1c0.1-0.1,0.3-0.1,0.5-0.1h11.8c0.5,0,0.9,0.4,0.9,0.9v38.9h9.7
	c0.5,0,0.9,0.4,0.9,0.9v11.9c0,0.5-0.4,0.9-0.9,0.9h-37.4C243.8,78.5,243.4,78.1,243.4,77.6C243.4,77.6,243.4,77.6,243.4,77.6z"/>
<path class="st0" d="M329.3,25c15.2,0,23.7,7.5,23.7,21s-8.5,21-23.5,21h-6.1v10.5c0,0.5-0.4,0.9-0.9,0.9h-14.4
	c-0.5,0-0.9-0.4-0.9-0.9V25.9c0-0.5,0.4-0.9,0.9-0.9H329.3z M329.6,53.7c5,0,7.9-2.8,7.9-7.7c0-4.6-2.9-7.1-8.2-7.1h-5.8v14.8H329.6
	z"/>
<path class="st0" d="M356.1,39.1c-0.1-0.4,0.2-0.9,0.6-1c9.6-2.6,13.7-3.1,17.8-3.1c12.5,0,17.8,5.2,17.8,17.5v25
	c0,0.5-0.4,0.9-0.9,0.9h-13.7c-0.5,0-0.9-0.4-0.9-0.9v-4.1c-3.2,3.7-6.8,5.8-11.4,5.8c-8.7,0-13.7-3.1-13.7-13.5
	c0-9,6-13.2,17.8-13.2h7.3c0-3.7-1-5.5-5.3-5.5c-4.2,0.2-8.4,0.8-12.5,1.7c-0.5,0.1-0.9-0.2-1-0.7L356.1,39.1z M371.7,59.9
	c-3.5,0-5.4,1-5.4,3.8c0,2.5,1.8,4.1,4.5,4.1c2.3-0.1,4.5-1,6.1-2.5v-5.3L371.7,59.9z"/>
<path class="st0" d="M440.7,35.9c0.5,0,0.9,0.4,0.9,0.9c0,0.1,0,0.2,0,0.2c-4,12.6-8,24.7-12.5,33.3c-5.7,10.9-13.4,18.3-25.7,22.5
	c-0.4,0.1-0.9-0.1-1.1-0.5l-4.4-10.4c-0.2-0.4,0-0.9,0.4-1.1c3.6-1.4,6.9-3.6,9.6-6.2l-14.4-37.5c-0.2-0.4,0-0.9,0.5-1.1
	c0.1,0,0.2-0.1,0.3-0.1h14.3c0.4,0,0.7,0.2,0.8,0.6l6.1,16.7v0.1l1.9,6.5c3.1-6.8,5.2-13.8,7.8-23.2c0.1-0.4,0.4-0.6,0.8-0.6
	L440.7,35.9z"/>
<path class="st0" d="M459.3,41.6c4.7-4.5,8.5-6.5,13.1-6.5c5.9,0,9.4,2.2,11,7.3c6-5.6,9.8-7.3,14.1-7.3c8.6,0,12.1,4.6,12.1,16.2
	v27.1H494V55.8c0-4.1-1.1-5.9-3.6-5.9c-1.8,0-3.7,1-5.9,3.5v24.9h-15.6V55.8c0-4.1-1.2-5.9-3.7-5.9c-2.1,0-4.1,1.4-6,3.6v24.9h-15.6
	V35.8h15.6V41.6z"/>
<path class="st0" d="M553.9,71.7c0.2,0.4,0.1,0.8-0.3,1.1c-6.5,4.5-12.3,6.4-19.2,6.4c-13.3,0-21.6-7.5-21.6-21.8
	c0-14.5,8-22.4,21.6-22.4c12.2,0,19.8,7.3,19.8,20.5c0,1.7-0.1,3.4-0.3,5.1c0,0.4-0.4,0.8-0.9,0.8h-25.2c0.8,4,2.9,5.7,7.2,5.7
	c5.4,0,9-1,14-3.3c0.4-0.2,0.9,0,1.1,0.4L553.9,71.7z M540.6,53c-0.2-4.6-2.3-7.1-6.3-7.1c-3.5,0-5.9,2.3-6.5,7.1H540.6z"/>
<path class="st0" d="M573.8,41.5c5.5-4.4,9.6-6.4,14.3-6.4c8.8,0,12.2,4.6,12.2,16.2v26.3c0,0.5-0.4,0.9-0.9,0.9h-13.9
	c-0.5,0-0.9-0.4-0.9-0.9V55.8c0-4.5-0.8-5.9-3.9-5.9c-2.7,0-4.9,1.6-7,3.9v23.6c0,0.5-0.4,0.9-0.9,0.9H559c-0.5,0-0.9-0.4-0.9-0.9
	V36.7c0-0.5,0.4-0.9,0.9-0.9h13.9c0.5,0,0.9,0.4,0.9,0.9V41.5z"/>
<path class="st0" d="M635.2,75.4c0.1,0.4-0.1,0.7-0.4,0.9c-3.9,1.9-8.1,2.8-12.4,2.8c-10.1,0-14.4-4.7-14.4-16.9V48.9h-4.9
	c-0.5,0-0.9-0.4-0.9-0.9V36.8c0-0.5,0.4-0.9,0.9-0.9h4.8v-8.2c0-0.5,0.4-0.9,0.9-0.9h13.9c0.5,0,0.9,0.4,0.9,0.9v8.2h9
	c0.5,0,0.9,0.4,0.9,0.9v11.3c0,0.5-0.4,0.9-0.9,0.9h-9v12.6c0,3.1,1,5,4.8,5c1.6,0,3,0,4.6-0.1c0.4,0,0.8,0.3,0.9,0.7L635.2,75.4z"
	/>
<path class="st0" d="M670.6,48.1c-0.1,0.4-0.6,0.7-1.1,0.6c-6.7-2-11.3-2.5-13.4-2.5c-1.4,0-2.6,0.4-2.6,1.8c0,2,2.1,2,9.6,4.2
	c7.9,2.4,11.3,5.7,11.3,12.6c0,9.4-6.9,14.4-17.3,14.4c-5.7,0-13.5-2-19.8-5.1c-0.4-0.2-0.6-0.7-0.4-1.1L640,64
	c0.2-0.4,0.6-0.7,1.1-0.5c0,0,0.1,0,0.1,0c6,2.7,11.6,4.3,14.8,4.3c2.2,0,2.9-0.5,2.9-1.6c0-1.8-2.2-2-8.7-4
	c-7.8-2.4-11.3-5.9-11.3-13.4c0-8.4,6-13.8,15.3-13.8c6.4-0.1,12.8,0.8,19,2.6c0.5,0.1,0.7,0.6,0.6,1.1c0,0,0,0,0,0L670.6,48.1z"/>
<path class="st1" d="M78.9,83.6H65.2c-5.1,0-9.3-4.1-9.3-9.3V39.2c0-5.1,4.1-9.3,9.3-9.3h13.6V0H65.2C43.6,0,26.1,17.6,26,39.2v35.1
	c0,21.6,17.6,39.2,39.2,39.2h13.6V83.6z"/>
<path class="st1" d="M40.4,0H1.9C0.9,0,0,0.9,0,1.9V28c0,1.1,0.9,1.9,1.9,1.9h17.8C22.3,17.6,29.7,6.8,40.4,0z"/>
<path class="st2" d="M86.7,29.9h13.6c5.1,0,9.3,4.1,9.3,9.3v35.1c0,5.1-4.1,9.3-9.3,9.3H86.7v29.9h13.6c21.6,0,39.2-17.6,39.2-39.2
	V39.2C139.5,17.6,122,0,100.4,0H86.7V29.9z"/>
<path class="st2" d="M125.2,113.5h38.5c1.1,0,1.9-0.9,1.9-1.9V85.5c0-1.1-0.9-1.9-1.9-1.9h-17.8C143.3,95.9,135.8,106.7,125.2,113.5
	z"/>
</svg>
