<?xml version="1.0" encoding="iso-8859-1"?>
<!-- Generator: Adobe Illustrator 19.2.0, SVG Export Plug-In . SVG Version: 6.00 Build 0)  -->
<svg version="1.1" id="Layer_1" xmlns="http://www.w3.org/2000/svg" xmlns:xlink="http://www.w3.org/1999/xlink" x="0px" y="0px"
	 viewBox="-49 141 512 512" style="enable-background:new -49 141 512 512;" xml:space="preserve">
<linearGradient id="SVGID_1_" gradientUnits="userSpaceOnUse" x1="-22.46" y1="397" x2="436.46" y2="397">
	<stop  offset="0.0051" style="stop-color:#F1673A"/>
	<stop  offset="1" style="stop-color:#F79839"/>
</linearGradient>
<path style="fill:url(#SVGID_1_);" d="M207,141C80.475,141-22.46,243.935-22.46,370.46v115.007
	c0,14.329,11.658,25.987,25.987,25.987h9.4v0.553c0,14.329,11.658,25.987,25.987,25.987h17.693
	c14.329,0,25.987-11.658,25.987-25.987v-106.16c0-14.329-11.658-25.987-25.987-25.987H38.914c-14.329,0-25.987,11.658-25.987,25.987
	v0.553H-5.873v-35.94c0-117.378,95.494-212.873,212.873-212.873s212.873,95.494,212.873,212.873v35.94h-18.799v-0.553
	c0-14.329-11.658-25.987-25.987-25.987h-17.693c-14.329,0-25.987,11.658-25.987,25.987v106.16c0,14.329,11.658,25.987,25.987,25.987
	h17.693c14.329,0,25.987-11.658,25.987-25.987v-0.553h0.805c-4.105,57.601-50.612,103.657-108.401,107.057
	c-3.53-10.165-13.199-17.484-24.551-17.484h-26.54c-9.452,0-17.14,7.689-17.14,17.14v17.693c0,9.452,7.689,17.14,17.14,17.14h26.54
	c11.498,0,21.27-7.509,24.684-17.878c67.313-3.526,121.445-57.657,124.97-124.97c10.37-3.416,17.879-13.187,17.879-24.685V370.46
	C436.46,243.935,333.525,141,207,141z M29.514,405.847c0-5.183,4.217-9.4,9.4-9.4h17.693c5.183,0,9.4,4.217,9.4,9.4v106.16
	c0,5.183-4.217,9.4-9.4,9.4H38.914c-5.183,0-9.4-4.217-9.4-9.4V405.847z M12.927,422.987v71.879h-9.4c-5.183,0-9.4-4.217-9.4-9.4
	v-62.479H12.927z M268.927,636.413h-26.54c-0.305,0-0.553-0.248-0.553-0.553v-17.693c0-0.305,0.248-0.553,0.553-0.553h26.54
	c5.183,0,9.4,4.216,9.4,9.4S274.11,636.413,268.927,636.413z M384.486,512.006c0,5.183-4.217,9.4-9.4,9.4h-17.693
	c-5.183,0-9.4-4.217-9.4-9.4v-106.16c0-5.183,4.217-9.4,9.4-9.4h17.693c5.183,0,9.4,4.217,9.4,9.4V512.006z M410.473,494.866h-9.4
	v-71.879h18.799v62.479C419.873,490.65,415.656,494.866,410.473,494.866z"/>
<linearGradient id="SVGID_2_" gradientUnits="userSpaceOnUse" x1="242.9395" y1="458.9265" x2="277.2203" y2="458.9265">
	<stop  offset="0.0051" style="stop-color:#F1673A"/>
	<stop  offset="1" style="stop-color:#F79839"/>
</linearGradient>
<path style="fill:url(#SVGID_2_);" d="M260.08,476.067c9.452,0,17.14-7.69,17.14-17.14c0-9.45-7.689-17.14-17.14-17.14
	c-9.452,0-17.14,7.689-17.14,17.14S250.628,476.067,260.08,476.067z"/>
<linearGradient id="SVGID_3_" gradientUnits="userSpaceOnUse" x1="189.8596" y1="458.9265" x2="224.1404" y2="458.9265">
	<stop  offset="0.0051" style="stop-color:#F1673A"/>
	<stop  offset="1" style="stop-color:#F79839"/>
</linearGradient>
<path style="fill:url(#SVGID_3_);" d="M207,441.786c-9.452,0-17.14,7.689-17.14,17.14s7.689,17.14,17.14,17.14
	s17.14-7.69,17.14-17.14C224.14,449.476,216.452,441.786,207,441.786z"/>
<linearGradient id="SVGID_4_" gradientUnits="userSpaceOnUse" x1="101.3931" y1="476.6171" x2="312.6069" y2="476.6171">
	<stop  offset="0.0051" style="stop-color:#F1673A"/>
	<stop  offset="1" style="stop-color:#F79839"/>
</linearGradient>
<path style="fill:url(#SVGID_4_);" d="M230.943,582.221c3.773,0,7.473-1.476,10.259-4.263l31.119-31.118h5.452
	c19.207,0,34.834-15.627,34.834-34.834v-106.16c0-19.207-15.627-34.834-34.834-34.834H136.227
	c-19.207,0-34.834,15.627-34.834,34.834v106.16c0,19.207,15.627,34.834,34.834,34.834H216.4v20.845
	c0,5.897,3.521,11.167,8.969,13.424C227.177,581.857,229.07,582.221,230.943,582.221z M136.227,530.253
	c-10.061,0-18.246-8.185-18.246-18.246v-106.16c0-10.061,8.185-18.246,18.246-18.246h141.546c10.061,0,18.246,8.185,18.246,18.246
	v106.16c0,10.061-8.185,18.246-18.246,18.246h-8.888c-2.2,0-4.309,0.874-5.864,2.43l-30.034,30.034v-24.17
	c0-4.58-3.713-8.294-8.294-8.294H136.227z"/>
<linearGradient id="SVGID_5_" gradientUnits="userSpaceOnUse" x1="136.7797" y1="458.9265" x2="171.0605" y2="458.9265">
	<stop  offset="0.0051" style="stop-color:#F1673A"/>
	<stop  offset="1" style="stop-color:#F79839"/>
</linearGradient>
<path style="fill:url(#SVGID_5_);" d="M153.92,441.786c-9.452,0-17.14,7.689-17.14,17.14s7.689,17.14,17.14,17.14
	s17.14-7.689,17.14-17.14S163.372,441.786,153.92,441.786z"/>
</svg>
