<?xml version="1.0" encoding="iso-8859-1"?>
<!-- Generator: Adobe Illustrator 19.2.0, SVG Export Plug-In . SVG Version: 6.00 Build 0)  -->
<svg version="1.1" id="Layer_1" xmlns="http://www.w3.org/2000/svg" xmlns:xlink="http://www.w3.org/1999/xlink" x="0px" y="0px"
	 viewBox="-49 141 511.977 511.977" style="enable-background:new -49 141 511.977 511.977;" xml:space="preserve">
<linearGradient id="SVGID_1_" gradientUnits="userSpaceOnUse" x1="-49" y1="396.9886" x2="462.9771" y2="396.9886">
	<stop  offset="0" style="stop-color:#F1673A"/>
	<stop  offset="1" style="stop-color:#F79839"/>
</linearGradient>
<path style="fill:url(#SVGID_1_);" d="M206.989,141C65.837,141-49,255.837-49,396.989S65.837,652.977,206.989,652.977
	s255.989-114.837,255.989-255.989S348.141,141,206.989,141z M388.787,314.457c4.937,0,9.031-3.572,9.863-8.269l3.656,1.829
	c3.601,1.801,7.632,2.752,11.657,2.752h12.65c1.559,3.958,3.004,7.972,4.352,12.031h-15.74c-4.851,0-9.71,1.147-14.048,3.315
	l-5.771,2.886c-3.639,1.818-7.999,1.547-11.385-0.708l-21.754-14.504c-1.647-1.097-3.582-1.684-5.561-1.684h-2.655l7.426-11.139
	c0.373-0.559,0.996-0.892,1.668-0.892h15.617v4.358C378.762,309.968,383.249,314.457,388.787,314.457z M377.305,233.882
	l-6.301,6.301c-3.915,3.915-3.915,10.264,0,14.178c1.957,1.957,4.524,2.937,7.089,2.937s5.132-0.979,7.089-2.937l5.39-5.39
	c10.401,12.874,19.481,26.857,27.024,41.746h-3.635c-0.929,0-1.859-0.221-2.691-0.635l-15.462-7.732
	c-3.046-1.523-6.457-2.327-9.863-2.327H363.14c-7.391,0-14.252,3.672-18.352,9.821l-14.837,22.261h-9.339
	c-4.054,0-7.352-3.298-7.352-7.352v-17.691c0-0.287,0.183-0.543,0.457-0.634l19.562-6.521c4.876-1.626,9.375-4.406,13.009-8.041
	c6.287-6.287,9.748-14.644,9.748-23.534v-18.019c0-0.175,0.071-0.348,0.195-0.473l7.562-7.562c0.253-0.253,0.488-0.516,0.708-0.789
	C368.922,225.462,373.195,229.592,377.305,233.882z M49.475,221.491c0.221,0.271,0.454,0.535,0.708,0.787l10.694,10.694
	c1.879,1.881,4.43,2.937,7.089,2.937c2.659,0,5.209-1.056,7.089-2.937l15.123-15.124c2.145-2.146,4.999-3.327,8.035-3.327h13.198
	v0.668c0,3.474,1.799,6.701,4.755,8.529c2.956,1.827,6.646,1.993,9.754,0.438l17.498-8.75c1.159-0.579,2.456-0.885,3.752-0.885
	h35.766c-3.911,2.551-6.629,6.617-7.468,11.46c-1.18,6.816,1.662,13.434,7.418,17.272l13.779,9.186
	c0.186,0.124,0.297,0.332,0.297,0.556v4.971c0,0.369-0.299,0.668-0.668,0.668h-4.604c-6.606,0-12.815,2.572-17.487,7.243
	l-67.419,67.419c-0.124,0.124-0.297,0.195-0.473,0.195H89.354c-17.322,0-31.414,14.092-31.414,31.414v4.882l-11.114-2.223
	c-2.649-0.529-4.86-2.22-6.069-4.635l-6.601-13.2c-1.698-3.398-5.169-5.544-8.967-5.544h-5.973c-4.898,0-9.23-3.123-10.778-7.769
	l-13.96-41.879C7.944,266.719,26.722,241.934,49.475,221.491z M206.989,632.926c-130.096,0-235.937-105.842-235.937-235.937
	c0-25.769,4.167-50.579,11.837-73.81l6.526,19.579c4.259,12.778,16.127,21.385,29.577,21.479l3.83,7.66
	c3.994,7.99,11.309,13.576,20.07,15.33l38.233,7.646c2.15,0.429,4.105,1.476,5.654,3.026c3.111,3.112,6.765,5.483,10.749,7.026
	L90.536,425.9c-0.341,1.023-0.515,2.092-0.515,3.171v21.388c0,9.835,4.697,19.231,12.565,25.131l25.666,19.249
	c2.846,2.133,4.545,5.531,4.545,9.089v57.689c0,6.224,1.825,12.25,5.276,17.426l15.415,23.123c3.355,5.032,8.967,8.035,15.014,8.035
	h3.728c7.002,0,12.699-5.697,12.699-12.699v-18.334c0-4.463,1.738-8.659,4.894-11.816l19.789-19.789
	c4.014-4.014,7.085-8.983,8.881-14.37l6.261-18.783c0.091-0.274,0.346-0.457,0.634-0.457h5.331c9.526,0,17.792-6.454,20.101-15.695
	l7.201-28.803c1.754-7.019-0.334-14.559-5.451-19.674l-13.974-13.974c-3.913-3.913-9.117-6.069-14.651-6.069H211.14l-36.707-36.707
	c-3.913-3.913-9.117-6.069-14.651-6.069h-48.808c-0.156-0.004-0.311-0.004-0.468,0h-1.723c-2.956,0-5.736-1.151-7.825-3.242
	c-4.358-4.359-9.857-7.301-15.902-8.51l-7.065-1.413v-8.891c0-6.265,5.097-11.362,11.362-11.362h11.362v0.668
	c0,5.537,4.489,10.026,10.026,10.026s10.026-4.489,10.026-10.026v-6.561c0.063-0.061,0.132-0.115,0.195-0.176l67.419-67.419
	c0.884-0.884,2.059-1.37,3.308-1.37h4.604c11.425,0,20.72-9.294,20.72-20.72v-4.971c0-6.944-3.45-13.389-9.226-17.239l-8.463-5.642
	l16.242-4.061c7.149-1.786,12.142-8.18,12.142-15.554c0-8.837-7.19-16.028-16.028-16.028h-64.509c-4.393,0-8.792,1.037-12.721,3.002
	l-6.625,3.312c-3.064-3.846-7.785-6.315-13.073-6.315h-16.54c-8.391,0-16.28,3.267-22.213,9.201l-8.034,8.034l-2.997-2.996
	c39.539-29.898,88.742-47.658,142.02-47.658s102.481,17.76,142.018,47.658l-6.954,6.954c-3.914,3.914-6.069,9.117-6.069,14.651
	v18.019c0,3.534-1.377,6.856-3.875,9.356c-1.445,1.445-3.232,2.549-5.172,3.196l-19.562,6.521
	c-8.474,2.825-14.168,10.723-14.168,19.657v17.689c0,5.052,1.398,9.773,3.792,13.841c-4.068,2.738-7.634,6.263-10.441,10.476
	l-9.463,14.192c-3.453,5.177-5.276,11.203-5.276,17.426v19.13c0,6.223,1.825,12.249,5.276,17.426l11.447,17.169
	c5.84,8.76,15.611,13.989,26.138,13.989h26.608c4.899,0,9.23,3.121,10.778,7.769l2.39,7.168c1.934,5.803,2.915,11.848,2.915,17.966
	v7.569c0,9.999,1.393,19.944,4.141,29.562l17.192,60.174C335.649,604.33,274.599,632.926,206.989,632.926z M140.285,478.798
	l-25.666-19.249c-2.846-2.135-4.545-5.533-4.545-9.09v-19.761l7.895-23.683h41.814c0.176,0,0.349,0.071,0.473,0.195l39.644,39.644
	c1.879,1.881,4.43,2.937,7.089,2.937h16.958c0.176,0,0.349,0.071,0.473,0.195l13.974,13.974c0.166,0.166,0.233,0.409,0.176,0.635
	l-7.201,28.802c-0.075,0.298-0.341,0.505-0.648,0.505h-5.331c-8.932,0-16.831,5.693-19.657,14.168l-6.261,18.783
	c-0.815,2.449-2.212,4.707-4.037,6.531l-19.789,19.789c-6.943,6.943-10.766,16.175-10.766,25.993v3.937l-10.123-15.184
	c-1.249-1.871-1.908-4.052-1.908-6.303v-57.688C152.85,494.093,148.153,484.697,140.285,478.798z M394.315,540.251l-13.521-47.322
	c-2.235-7.825-3.37-15.919-3.37-24.055v-7.569c0-8.277-1.327-16.455-3.943-24.308l-2.39-7.168
	c-4.282-12.846-16.258-21.479-29.8-21.479h-26.608c-3.807,0-7.341-1.892-9.454-5.06l-11.447-17.171
	c-1.249-1.873-1.909-4.052-1.909-6.303v-19.13c0-2.251,0.66-4.43,1.909-6.303l9.463-14.194c3.354-5.032,8.967-8.035,15.014-8.035
	h35.411l19.228,12.818c9.356,6.237,21.418,6.989,31.474,1.96l5.771-2.886c1.569-0.785,3.326-1.199,5.081-1.199h21.424
	c4.099,17.391,6.277,35.515,6.277,54.139C442.926,450.828,424.785,500.503,394.315,540.251z"/>
<linearGradient id="SVGID_2_" gradientUnits="userSpaceOnUse" x1="122.1023" y1="241.9242" x2="163.5464" y2="241.9242">
	<stop  offset="0" style="stop-color:#F1673A"/>
	<stop  offset="1" style="stop-color:#F79839"/>
</linearGradient>
<path style="fill:url(#SVGID_2_);" d="M132.138,257.299c1.507,0,3.036-0.341,4.475-1.06l21.388-10.694
	c4.953-2.476,6.96-8.498,4.483-13.45c-2.476-4.953-8.498-6.962-13.45-4.483l-21.388,10.694c-4.953,2.476-6.96,8.498-4.483,13.45
	C124.92,255.268,128.46,257.299,132.138,257.299z"/>
<linearGradient id="SVGID_3_" gradientUnits="userSpaceOnUse" x1="303.9033" y1="231.231" x2="323.9546" y2="231.231">
	<stop  offset="0" style="stop-color:#F1673A"/>
	<stop  offset="1" style="stop-color:#F79839"/>
</linearGradient>
<path style="fill:url(#SVGID_3_);" d="M313.929,246.604c5.537,0,10.026-4.489,10.026-10.026v-10.694
	c0-5.537-4.489-10.026-10.026-10.026s-10.026,4.489-10.026,10.026v10.694C303.903,242.115,308.391,246.604,313.929,246.604z"/>
</svg>
