<?xml version="1.0" encoding="iso-8859-1"?>
<!-- Generator: Adobe Illustrator 19.2.0, SVG Export Plug-In . SVG Version: 6.00 Build 0)  -->
<svg version="1.1" id="Layer_1" xmlns="http://www.w3.org/2000/svg" xmlns:xlink="http://www.w3.org/1999/xlink" x="0px" y="0px"
	 viewBox="0 0 512 512" style="enable-background:new 0 0 512 512;" xml:space="preserve">
<g>
	<linearGradient id="SVGID_1_" gradientUnits="userSpaceOnUse" x1="149.7872" y1="256" x2="362.2128" y2="256">
		<stop  offset="0" style="stop-color:#F1673A"/>
		<stop  offset="1" style="stop-color:#F79839"/>
	</linearGradient>
	<path style="fill:url(#SVGID_1_);" d="M256,149.787c-58.566,0-106.213,47.646-106.213,106.213S197.434,362.213,256,362.213
		S362.213,314.566,362.213,256S314.566,149.787,256,149.787z M345.484,247.83h-32.452c-1.173-29.948-8.755-56.076-20.281-73.813
		C321.666,187.03,342.5,214.884,345.484,247.83z M247.83,168.185v79.644h-32.498c0.929-21.834,5.568-42.013,13.312-57.503
		C234.176,179.264,240.889,171.619,247.83,168.185z M247.83,264.17v79.644c-6.94-3.434-13.654-11.078-19.186-22.141
		c-7.744-15.489-12.383-35.669-13.312-57.503L247.83,264.17L247.83,264.17z M264.17,343.815V264.17h32.498
		c-0.929,21.834-5.568,42.013-13.312,57.503C277.824,332.736,271.111,340.381,264.17,343.815L264.17,343.815z M264.17,247.83
		v-79.644c6.94,3.434,13.654,11.078,19.186,22.141c7.744,15.489,12.383,35.669,13.312,57.503H264.17L264.17,247.83z
		 M219.249,174.017c-11.527,17.737-19.109,43.864-20.281,73.813h-32.452C169.5,214.884,190.334,187.03,219.249,174.017
		L219.249,174.017z M166.515,264.17h32.452c1.173,29.948,8.755,56.076,20.281,73.813C190.334,324.97,169.5,297.116,166.515,264.17z
		 M292.751,337.983c11.527-17.737,19.109-43.864,20.281-73.813h32.452C342.5,297.116,321.666,324.97,292.751,337.983z"/>
	<linearGradient id="SVGID_2_" gradientUnits="userSpaceOnUse" x1="1.890295e-04" y1="255.9995" x2="511.9998" y2="255.9995">
		<stop  offset="0" style="stop-color:#F1673A"/>
		<stop  offset="1" style="stop-color:#F79839"/>
	</linearGradient>
	<path style="fill:url(#SVGID_2_);" d="M509.236,87.995c-1.84-1.625-4.316-2.336-6.739-1.935c-14.007,2.315-28.269,3.489-42.39,3.49
		C386.368,89.553,315.97,58.638,261.884,2.502C260.343,0.903,258.22,0,256,0c-2.22,0-4.343,0.903-5.884,2.501
		c-54.082,56.132-124.48,87.047-198.225,87.05c-14.116,0-28.377-1.174-42.389-3.49c-2.422-0.4-4.898,0.31-6.739,1.935
		s-2.854,3.993-2.757,6.446c3.083,78.497,18.235,149.24,45.034,210.266c21.521,49.008,50.552,91.88,86.285,127.424
		c61.043,60.722,119.861,78.786,122.335,79.526c0.764,0.228,1.551,0.342,2.339,0.342c0.788,0,1.576-0.113,2.339-0.342
		c2.474-0.74,61.292-18.803,122.335-79.526c35.732-35.544,64.763-78.416,86.285-127.424c26.8-61.026,41.951-131.769,45.034-210.266
		C512.09,91.988,511.077,89.621,509.236,87.995L509.236,87.995z M369.803,419.897c-51.525,51.512-102.445,71.343-113.811,75.325
		c-11.312-3.94-61.68-23.482-113.142-74.674C89.915,367.891,25.636,270.408,16.788,103.642c11.662,1.495,23.43,2.25,35.105,2.25
		c39.204-0.001,77.641-8.262,114.245-24.552c33.192-14.773,63.387-35.458,89.864-61.549c26.479,26.095,56.673,46.782,89.863,61.552
		c36.603,16.29,75.04,24.55,114.246,24.549c11.678,0,23.445-0.756,35.104-2.25C486.396,269.923,422.457,367.257,369.803,419.897
		L369.803,419.897z"/>
	<linearGradient id="SVGID_3_" gradientUnits="userSpaceOnUse" x1="47.2599" y1="262.206" x2="464.7412" y2="262.206">
		<stop  offset="0" style="stop-color:#F1673A"/>
		<stop  offset="1" style="stop-color:#F79839"/>
	</linearGradient>
	<path style="fill:url(#SVGID_3_);" d="M261.165,60.988c-3.007-2.452-7.323-2.452-10.328,0
		C193.97,107.372,126.368,132.31,55.34,133.106c-2.314,0.026-4.507,1.031-6.037,2.766c-1.531,1.735-2.253,4.037-1.989,6.336
		c5.97,52.007,18.177,99.745,36.283,141.89c18.78,43.714,44.049,81.989,75.108,113.76c37.518,38.378,74.984,58.265,93.979,66.702
		c1.056,0.47,2.186,0.704,3.317,0.704c1.131,0,2.262-0.234,3.317-0.704c16.164-7.18,48.308-23.877,81.967-55.025
		c3.313-3.064,3.512-8.234,0.448-11.546c-3.064-3.313-8.233-3.512-11.546-0.448c-29.757,27.537-58.128,43.106-74.188,50.577
		c-18.744-8.712-52.077-27.38-85.61-61.683c-29.647-30.328-53.798-66.929-71.78-108.788
		c-16.447-38.285-27.864-81.453-33.976-128.431C133.927,146.519,199.78,121.95,256,77.785
		c56.224,44.168,122.076,68.74,191.367,71.433c-6.112,46.979-17.529,90.147-33.976,128.431
		c-15.706,36.562-36.199,69.234-60.911,97.111c-2.994,3.377-2.682,8.541,0.694,11.533c3.377,2.994,8.541,2.682,11.533-0.694
		c25.87-29.184,47.3-63.333,63.697-101.5c18.106-42.145,30.313-89.884,36.283-141.89c0.264-2.299-0.459-4.6-1.989-6.336
		c-1.531-1.735-3.723-2.741-6.037-2.766C385.637,132.315,318.036,107.377,261.165,60.988L261.165,60.988z"/>
</g>
</svg>
