<?xml version="1.0" encoding="iso-8859-1"?>
<!-- Generator: Adobe Illustrator 19.2.0, SVG Export Plug-In . SVG Version: 6.00 Build 0)  -->
<svg version="1.1" id="Layer_1" xmlns="http://www.w3.org/2000/svg" xmlns:xlink="http://www.w3.org/1999/xlink" x="0px" y="0px"
	 viewBox="0 0 512 512" style="enable-background:new 0 0 512 512;" xml:space="preserve">
<g>
	<g>
		<linearGradient id="SVGID_1_" gradientUnits="userSpaceOnUse" x1="0" y1="256.0005" x2="512" y2="256.0005">
			<stop  offset="0" style="stop-color:#F1673A"/>
			<stop  offset="1" style="stop-color:#F79839"/>
		</linearGradient>
		<path style="fill:url(#SVGID_1_);" d="M478.33,68.409H194.957c-5.087,0-9.925-2.195-13.272-6.023l-12.043-13.763
			c-8.019-9.163-19.6-14.418-31.776-14.418H25.119C11.268,34.205,0,45.473,0,59.324v384.802c0,18.566,15.105,33.67,33.67,33.67
			h444.66c18.566,0,33.67-15.105,33.67-33.67V102.079C512,83.514,496.895,68.409,478.33,68.409z M495.967,444.125
			c0,9.725-7.912,17.637-17.637,17.637H33.67c-9.725,0-17.637-7.912-17.637-17.637V136.284c0-9.725,7.912-17.637,17.637-17.637
			h444.66c9.725,0,17.637,7.912,17.637,17.637V444.125z M495.967,107.617c-5.133-3.169-11.174-5.003-17.637-5.003H33.67
			c-6.463,0-12.504,1.834-17.637,5.003V59.324c0-5.01,4.076-9.086,9.086-9.086h112.746c7.552,0,14.736,3.259,19.708,8.943
			l12.043,13.763c6.394,7.307,15.629,11.498,25.34,11.498H478.33c9.725,0,17.637,7.912,17.637,17.637L495.967,107.617
			L495.967,107.617z"/>
	</g>
</g>
<g>
	<g>
		<linearGradient id="SVGID_2_" gradientUnits="userSpaceOnUse" x1="115.997" y1="290.207" x2="396.004" y2="290.207">
			<stop  offset="0" style="stop-color:#F1673A"/>
			<stop  offset="1" style="stop-color:#F79839"/>
		</linearGradient>
		<path style="fill:url(#SVGID_2_);" d="M374.783,374.577c-7.81-7.81-19.519-9.372-28.911-4.725l-60.949-60.949l41.351-41.351
			l12.487,4.16c2.566,0.854,5.235,1.287,7.932,1.287c6.717,0,13.027-2.615,17.765-7.358l24.186-24.186
			c4.746-4.744,7.36-11.051,7.36-17.763s-2.613-13.019-7.355-17.756c-4.742-4.748-11.05-7.363-17.764-7.363
			s-13.022,2.615-17.761,7.358l-13.21,13.21l-9.638-3.212l-3.212-9.638l13.209-13.208c4.746-4.744,7.36-11.051,7.36-17.763
			s-2.613-13.019-7.355-17.756c-4.742-4.748-11.05-7.363-17.764-7.363c-6.714,0-13.022,2.615-17.761,7.358l-24.188,24.188
			c-6.769,6.769-9.095,16.616-6.07,25.703l4.161,12.484l-23.605,23.605c0.073-0.781,0.112-1.57,0.112-2.365
			c0-6.709-2.612-13.018-7.357-17.762l-60.465-60.465c-9.792-9.794-25.729-9.794-35.524,0l-24.186,24.186
			c-9.794,9.794-9.794,25.729,0,35.524l60.465,60.465c4.744,4.745,11.052,7.357,17.762,7.357c0.795,0,1.584-0.04,2.365-0.112
			l-22.495,22.495l-12.494-4.164c-9.086-3.012-18.931-0.685-25.691,6.075l-24.186,24.186c-4.746,4.744-7.36,11.051-7.36,17.763
			s2.613,13.019,7.355,17.756c4.742,4.748,11.05,7.363,17.764,7.363s13.022-2.615,17.761-7.358l13.21-13.21l9.638,3.212l3.212,9.638
			l-13.209,13.208c-4.746,4.744-7.36,11.051-7.36,17.763s2.613,13.019,7.355,17.756c4.742,4.748,11.05,7.363,17.764,7.363
			s13.022-2.615,17.761-7.358l24.188-24.188c6.769-6.769,9.095-16.616,6.07-25.703l-4.161-12.484l40.24-40.24l60.95,60.951
			c-4.645,9.392-3.085,21.101,4.724,28.911l12.094,12.093c3.229,3.23,7.473,4.845,11.715,4.845s8.485-1.615,11.715-4.845
			l12.093-12.093c6.459-6.459,6.459-16.97,0-23.43L374.783,374.577z M293.496,227.767c2.147-2.146,2.897-5.322,1.937-8.204
			l-5.726-17.18c-1.095-3.287-0.252-6.849,2.195-9.298l24.191-24.191c1.712-1.714,3.992-2.658,6.42-2.658s4.707,0.944,6.425,2.665
			c1.716,1.715,2.661,3.994,2.661,6.421s-0.945,4.706-2.663,6.423l-16.714,16.714c-2.147,2.146-2.897,5.322-1.937,8.203
			l6.046,18.142c0.798,2.394,2.676,4.273,5.071,5.071l18.142,6.046c2.878,0.959,6.056,0.211,8.203-1.937l16.717-16.718
			c1.712-1.714,3.992-2.658,6.42-2.658s4.707,0.944,6.425,2.665c1.716,1.715,2.661,3.994,2.661,6.421s-0.945,4.706-2.663,6.423
			l-24.191,24.191c-1.712,1.715-3.993,2.658-6.424,2.658c-0.975,0-1.941-0.157-2.868-0.466l-17.184-5.727
			c-2.881-0.96-6.055-0.211-8.202,1.937l-22.419,22.419c-1.207-3.429-3.151-6.654-5.889-9.391
			c-7.809-7.81-19.519-9.371-28.911-4.724l-0.484-0.484L293.496,227.767z M248.938,271.405l-12.849,12.849l-6.802-6.802
			l12.849-12.849L248.938,271.405z M205.856,274.445c-2.427,0-4.708-0.946-6.424-2.661l-60.465-60.465
			c-3.542-3.542-3.542-9.307,0-12.849l24.186-24.186c1.771-1.771,4.098-2.656,6.424-2.656c2.327,0,4.654,0.885,6.425,2.656
			l60.465,60.465c1.716,1.716,2.662,3.998,2.662,6.425s-0.945,4.708-2.662,6.424l-24.187,24.186
			C210.565,273.499,208.284,274.445,205.856,274.445z M218.504,352.643c-2.147,2.147-2.897,5.322-1.937,8.204l5.726,17.18
			c1.095,3.287,0.252,6.849-2.195,9.298l-24.191,24.191c-1.712,1.714-3.992,2.658-6.42,2.658c-2.427,0-4.707-0.944-6.425-2.665
			c-1.716-1.714-2.66-3.994-2.66-6.421c0-2.426,0.945-4.706,2.663-6.423l16.714-16.714c2.147-2.146,2.897-5.322,1.937-8.203
			l-6.046-18.142c-0.798-2.394-2.677-4.273-5.071-5.071l-18.142-6.046c-2.881-0.96-6.056-0.211-8.203,1.937l-16.718,16.718
			c-1.712,1.715-3.992,2.658-6.42,2.658c-2.427,0-4.707-0.944-6.425-2.665c-1.716-1.715-2.661-3.994-2.661-6.421
			s0.945-4.706,2.663-6.423l24.188-24.188c2.446-2.446,6.011-3.286,9.295-2.197l17.184,5.727c2.88,0.958,6.056,0.211,8.204-1.937
			l31.65-31.65l0.484,0.484c-4.646,9.392-3.086,21.101,4.724,28.911c2.737,2.737,5.962,4.682,9.391,5.888L218.504,352.643z
			 M278.793,289.922l-12.088,12.088c-0.002,0.002-0.003,0.003-0.005,0.005s-0.003,0.003-0.005,0.005l-12.088,12.088
			c-3.543,3.543-9.307,3.542-12.849,0c-3.542-3.542-3.542-9.307,0-12.849l24.186-24.186c1.772-1.772,4.099-2.657,6.425-2.657
			c2.327,0,4.654,0.885,6.425,2.656C282.335,280.616,282.335,286.38,278.793,289.922z M375.539,398.761l-12.093,12.093
			c-0.208,0.207-0.547,0.207-0.756,0l-12.092-12.093c-3.542-3.542-3.543-9.307,0-12.849c3.541-3.542,9.306-3.543,12.848,0
			l12.093,12.094C375.747,398.214,375.747,398.553,375.539,398.761z"/>
	</g>
</g>
<g>
	<g>
		<linearGradient id="SVGID_3_" gradientUnits="userSpaceOnUse" x1="161.5607" y1="223.0329" x2="213.8731" y2="223.0329">
			<stop  offset="0" style="stop-color:#F1673A"/>
			<stop  offset="1" style="stop-color:#F79839"/>
		</linearGradient>
		<path style="fill:url(#SVGID_3_);" d="M211.525,235.504l-36.279-36.279c-3.131-3.131-8.207-3.131-11.337,0
			c-3.131,3.131-3.131,8.207,0,11.337l36.279,36.279c1.565,1.565,3.617,2.348,5.668,2.348s4.103-0.782,5.668-2.348
			C214.656,243.71,214.656,238.634,211.525,235.504z"/>
	</g>
</g>
</svg>
