<?xml version="1.0" encoding="iso-8859-1"?>
<!-- Generator: Adobe Illustrator 19.2.0, SVG Export Plug-In . SVG Version: 6.00 Build 0)  -->
<svg version="1.1" id="Layer_1" xmlns="http://www.w3.org/2000/svg" xmlns:xlink="http://www.w3.org/1999/xlink" x="0px" y="0px"
	 viewBox="0 0 512 512" style="enable-background:new 0 0 512 512;" xml:space="preserve">
<g>
	<g>
		<linearGradient id="SVGID_1_" gradientUnits="userSpaceOnUse" x1="324.6498" y1="386.7168" x2="462.5763" y2="386.7168">
			<stop  offset="0" style="stop-color:#F1673A"/>
			<stop  offset="1" style="stop-color:#F79839"/>
		</linearGradient>
		<path style="fill:url(#SVGID_1_);" d="M462.576,310.073c-10.24-1.881-19.435-6.687-26.749-13.375l-62.903,102.504
			c-2.926-0.731-5.851-1.045-8.986-1.045c-21.629,0-39.288,17.554-39.288,39.288c0,21.629,17.554,39.288,39.288,39.288
			c21.629,0,39.288-17.554,39.288-39.288c0-7.628-2.194-14.629-5.956-20.689L462.576,310.073z M363.938,451.971
			c-8.046,0-14.524-6.478-14.524-14.524c0-8.046,6.478-14.524,14.524-14.524s14.524,6.478,14.524,14.524
			C378.567,445.388,371.984,451.971,363.938,451.971z"/>
	</g>
</g>
<g>
	<g>
		<linearGradient id="SVGID_2_" gradientUnits="userSpaceOnUse" x1="1.924476e-05" y1="255.8955" x2="129.5674" y2="255.8955">
			<stop  offset="0" style="stop-color:#F1673A"/>
			<stop  offset="1" style="stop-color:#F79839"/>
		</linearGradient>
		<path style="fill:url(#SVGID_2_);" d="M78.367,255.843c0-10.658-4.284-20.376-11.18-27.376l62.38-101.878
			c-9.718-3.239-18.181-9.195-24.66-16.823L39.497,216.764c-0.104,0-0.209,0-0.313,0C17.554,216.66,0,234.318,0,255.948
			c0,21.629,17.554,39.184,39.288,39.184c0.07,0,0.139,0,0.209,0l65.411,106.893c6.478-7.732,14.942-13.584,24.66-16.823
			l-62.38-101.878C74.083,276.219,78.367,266.606,78.367,255.843z M39.288,270.367c-8.046,0-14.524-6.478-14.524-14.524
			c-0.104-7.941,6.374-14.524,14.524-14.524c8.046,0,14.524,6.478,14.524,14.524C53.812,263.889,47.334,270.367,39.288,270.367z"/>
	</g>
</g>
<g>
	<g>
		<linearGradient id="SVGID_3_" gradientUnits="userSpaceOnUse" x1="107.938" y1="386.6645" x2="312.2155" y2="386.6645">
			<stop  offset="0" style="stop-color:#F1673A"/>
			<stop  offset="1" style="stop-color:#F79839"/>
		</linearGradient>
		<path style="fill:url(#SVGID_3_);" d="M308.976,435.984c0-3.866,0.418-7.628,1.149-11.389H184.738
			c-0.94-3.03-2.194-5.956-3.762-8.673l64.784-105.848c-10.24-1.881-19.435-6.687-26.749-13.375l-61.962,101.251
			c-3.135-0.836-6.374-1.254-9.822-1.254c-21.629,0-39.288,17.554-39.288,39.288c0,0.209,0,0.522,0,0.731s0,0.522,0,0.731
			c0,21.629,17.554,39.184,39.288,39.184c15.569,0,28.944-9.091,35.318-22.152h129.672
			C310.126,448.731,308.976,442.462,308.976,435.984z M147.226,450.403c-7.837,0-14.106-6.165-14.524-13.793
			c0.418-7.732,6.687-13.793,14.524-13.793c7.837,0,14.106,6.165,14.524,13.793C161.332,444.343,155.063,450.403,147.226,450.403z"
			/>
	</g>
</g>
<g>
	<g>
		<linearGradient id="SVGID_4_" gradientUnits="userSpaceOnUse" x1="307.8269" y1="256" x2="512" y2="256">
			<stop  offset="0" style="stop-color:#F1673A"/>
			<stop  offset="1" style="stop-color:#F79839"/>
		</linearGradient>
		<path style="fill:url(#SVGID_4_);" d="M472.712,216.764c-14.942,0-28.003,8.359-34.586,20.689H307.827
			c2.09,5.747,3.239,12.016,3.239,18.495c0,3.866-0.418,7.628-1.149,11.389H435.2c4.911,16.091,19.853,27.899,37.512,27.899
			c21.629,0,39.288-17.554,39.288-39.288C512,234.318,494.446,216.764,472.712,216.764z M472.712,270.576
			c-8.046,0-14.524-6.478-14.524-14.524s6.478-14.524,14.524-14.524s14.524,6.478,14.524,14.524
			C487.34,263.993,480.758,270.576,472.712,270.576z"/>
	</g>
</g>
<g>
	<g>
		<linearGradient id="SVGID_5_" gradientUnits="userSpaceOnUse" x1="107.938" y1="125.3355" x2="312.111" y2="125.3355">
			<stop  offset="0" style="stop-color:#F1673A"/>
			<stop  offset="1" style="stop-color:#F79839"/>
		</linearGradient>
		<path style="fill:url(#SVGID_5_);" d="M310.021,85.943c-0.731-3.657-1.149-7.419-1.149-11.389c0-6.478,1.149-12.748,3.239-18.495
			H181.812c-6.583-12.33-19.644-20.689-34.586-20.689c-21.629,0-39.288,17.554-39.288,39.288c0,21.525,17.554,39.079,39.288,39.079
			c3.135,0,6.06-0.418,8.986-1.045l62.798,102.609c7.419-6.687,16.614-11.494,26.749-13.375L180.454,95.242
			c1.776-2.926,3.239-6.06,4.284-9.404v0.104L310.021,85.943L310.021,85.943z M147.226,88.973c-8.046,0-14.524-6.478-14.524-14.524
			c-0.104-7.941,6.478-14.524,14.524-14.524c8.046,0,14.524,6.478,14.524,14.524S155.272,88.973,147.226,88.973z"/>
	</g>
</g>
<g>
	<g>
		<linearGradient id="SVGID_6_" gradientUnits="userSpaceOnUse" x1="91.0106" y1="256" x2="346.2792" y2="256">
			<stop  offset="0" style="stop-color:#F1673A"/>
			<stop  offset="1" style="stop-color:#F79839"/>
		</linearGradient>
		<path style="fill:url(#SVGID_6_);" d="M295.079,256.052c0-10.658-4.284-20.376-11.18-27.376l62.38-101.878
			c-9.613-3.344-18.077-9.3-24.555-16.927l-65.411,106.893c-0.104,0-0.209,0-0.313,0c-17.763,0-32.705,11.807-37.512,27.899H93.1
			c0.731,3.657,1.149,7.419,1.149,11.389c0,6.478-1.149,12.748-3.239,18.495h130.403c6.583,12.33,19.644,20.689,34.586,20.689
			c0.07,0,0.139,0,0.209,0l65.411,106.893c6.478-7.732,14.942-13.584,24.66-16.823l-62.38-101.878
			C290.795,276.323,295.079,266.71,295.079,256.052z M256,270.472c-8.046,0-14.524-6.478-14.524-14.524
			c0-8.046,6.478-14.524,14.524-14.524c8.046,0,14.524,6.478,14.524,14.524C270.629,263.993,264.046,270.472,256,270.472z"/>
	</g>
</g>
<g>
	<g>
		<linearGradient id="SVGID_7_" gradientUnits="userSpaceOnUse" x1="324.5453" y1="125.2833" x2="462.4719" y2="125.2833">
			<stop  offset="0" style="stop-color:#F1673A"/>
			<stop  offset="1" style="stop-color:#F79839"/>
		</linearGradient>
		<path style="fill:url(#SVGID_7_);" d="M397.166,95.242c3.762-6.06,5.956-13.061,5.956-20.689
			c0-21.629-17.554-39.288-39.288-39.288c-21.629,0-39.288,17.554-39.288,39.288c0,21.629,17.554,39.288,39.288,39.288
			c3.239-0.104,6.269-0.418,9.091-1.149l62.798,102.609c7.419-6.687,16.614-11.494,26.749-13.375L397.166,95.242z M363.938,89.078
			c-8.046,0-14.524-6.478-14.524-14.524s6.478-14.524,14.524-14.524s14.524,6.478,14.524,14.524
			C378.462,82.599,371.984,89.078,363.938,89.078z"/>
	</g>
</g>
</svg>
